# xmcd CD database file
#
# Track frame offsets:
#	150
#	15322
#	42282
#	58330
#	79072
#	90815
#	110947
#	125790
#	145932
#	165767
#	182477
#	197950
#	218320
#	233280
#	260865
#	277135
#
# Disc length: 3921 seconds
#
# Revision: 0
# Processed by: cddbd v1.5.1PL0 Copyright (c) Steve Scherf et al.
# Submitted via: CDex 1.51
#
DISCID=d90f4f10
DTITLE=Naldo's JAZZ FAMILY - Second Baby
DYEAR=1992
DGENRE=Jazz
TTITLE0=Washington Post
TTITLE1=Moonlight and Roses
TTITLE2=Canal Street Blues
TTITLE3=Bas-moi un tibou
TTITLE4=Orignal Charleston Strut
TTITLE5=Just a Gigolo
TTITLE6=Egyptioan Fantasy
TTITLE7=Sugar Blues
TTITLE8=Red Wing
TTITLE9=Love me tender (Opus in 4 Sätzen)
TTITLE10=Chiquita
TTITLE11=Mister Sandmann
TTITLE12=Saturday night Function
TTITLE13=When my Dreamboat comes home
TTITLE14=FDamily Boogie Woogie
TTITLE15=Farewell Blues
EXTD=YEAR: 1992
EXTT0=
EXTT1=
EXTT2=
EXTT3=
EXTT4=
EXTT5=
EXTT6=
EXTT7=
EXTT8=
EXTT9=
EXTT10=
EXTT11=
EXTT12=
EXTT13=
EXTT14=
EXTT15=
PLAYORDER=
